<svg xmlns="http://www.w3.org/2000/svg" width="16.779" height="16.798" viewBox="0 0 16.779 16.798">
  <g id="check" transform="translate(-6.059 -6.005)" style="isolation: isolate">
    <g id="Group_122" data-name="Group 122" transform="translate(6.059 6.005)">
      <path id="Path_160" data-name="Path 160" d="M14.444,22.8a8.427,8.427,0,0,1-7.551-4.711A8.4,8.4,0,0,1,16.539,6.269a.646.646,0,1,1-.323,1.251,7.106,7.106,0,0,0-8.161,10,7.235,7.235,0,0,0,6.582,3.984,7.107,7.107,0,0,0,6.684-8.883.646.646,0,0,1,1.251-.323,8.4,8.4,0,0,1-7.9,10.5l-.228,0Z" transform="translate(-6.059 -6.005)" fill="#fca823"/>
    </g>
    <g id="Group_123" data-name="Group 123" transform="translate(13.793 7.373)">
      <path id="Path_161" data-name="Path 161" d="M30.646,19.285a.646.646,0,0,1-.457-1.1l7.753-7.753a.646.646,0,0,1,.914.914L31.1,19.1a.644.644,0,0,1-.457.189Z" transform="translate(-30 -10.24)" fill="#fca823"/>
    </g>
    <g id="Group_124" data-name="Group 124" transform="translate(11.052 12.385)">
      <path id="Path_162" data-name="Path 162" d="M24.9,29.788a.643.643,0,0,1-.457-.189L21.7,26.858a.646.646,0,1,1,.914-.914l2.741,2.741a.646.646,0,0,1-.457,1.1Z" transform="translate(-21.515 -25.755)" fill="#fca823"/>
    </g>
  </g>
</svg>
