<?xml version="1.0" encoding="utf-8"?>
<!-- Generator: Adobe Illustrator 19.0.0, SVG Export Plug-In . SVG Version: 6.00 Build 0)  -->
<svg version="1.1" id="Livello_1" xmlns="http://www.w3.org/2000/svg" xmlns:xlink="http://www.w3.org/1999/xlink" x="0px" y="0px"
	 viewBox="-297 388.2 16.8 16.8" style="enable-background:new -297 388.2 16.8 16.8;" xml:space="preserve">
<style type="text/css">
	.st0{fill:#FCA823;}
</style>
<g id="check" transform="translate(-6.059 -6.005)">
	<g id="Raggruppa_122" transform="translate(6.059 6.005)">
		<path id="Tracciato_160" class="st0" d="M-288.6,405c-3.2,0-6.1-1.8-7.6-4.7c-2-4.2-0.3-9.2,3.9-11.2c1.8-0.9,3.8-1.1,5.8-0.6
			c0.3,0.1,0.6,0.4,0.5,0.8s-0.4,0.6-0.8,0.5l0,0c-3.8-1-7.7,1.3-8.7,5.1c-0.4,1.6-0.2,3.4,0.5,4.9c1.2,2.5,3.8,4,6.6,4
			c3.9-0.1,7-3.4,6.9-7.3c0-0.5-0.1-1.1-0.2-1.6c-0.1-0.3,0.1-0.7,0.5-0.8c0.3-0.1,0.7,0.1,0.8,0.5l0,0c1.2,4.5-1.5,9.1-6,10.2
			c-0.6,0.2-1.2,0.2-1.9,0.3L-288.6,405L-288.6,405z"/>
	</g>
</g>
<g id="check_1_" transform="translate(-6.059 -6.005)">
	<g id="Raggruppa_122_1_" transform="translate(6.059 6.005)">
		<path id="Tracciato_160_1_" class="st0" d="M-280.2,396.6c0,3.2-1.8,6.1-4.7,7.6c-4.2,2-9.2,0.3-11.2-3.9
			c-0.9-1.8-1.1-3.8-0.6-5.8c0.1-0.3,0.4-0.6,0.8-0.5s0.6,0.4,0.5,0.8l0,0c-1,3.8,1.3,7.7,5.1,8.7c1.6,0.4,3.4,0.2,4.9-0.5
			c2.5-1.2,4-3.8,4-6.6c-0.1-3.9-3.4-7-7.3-6.9c-0.5,0-1.1,0.1-1.6,0.2c-0.3,0.1-0.7-0.1-0.8-0.5c-0.1-0.3,0.1-0.7,0.5-0.8l0,0
			c4.5-1.2,9.1,1.5,10.2,6c0.2,0.6,0.2,1.2,0.3,1.9L-280.2,396.6L-280.2,396.6z"/>
	</g>
</g>
</svg>
